<?xml version="1.0" encoding="UTF-8" standalone="no"?>
<!DOCTYPE svg PUBLIC "-//W3C//DTD SVG 1.1//EN"
 "http://www.w3.org/Graphics/SVG/1.1/DTD/svg11.dtd">
<!-- Generated by graphviz version 14.1.5 (20260411.2331)
 -->
<!-- Title: LimbusDB_ER Pages: 1 -->
<svg width="1066pt" height="643pt"
 viewBox="14.00 14.00 1052.00 629.00" xmlns="http://www.w3.org/2000/svg" xmlns:xlink="http://www.w3.org/1999/xlink">
<g id="graph0" class="graph" transform="scale(1 1) rotate(0) translate(54 596.12)">
<title>LimbusDB_ER</title>
<polygon fill="white" stroke="none" points="-39.6,32.4 -39.6,-581.72 997.72,-581.72 997.72,32.4 -39.6,32.4"/>
<!-- sinner -->
<g id="node1" class="node">
<title>sinner</title>
<polygon fill="none" stroke="black" points="795.58,-230.18 795.58,-334.82 958.12,-334.82 958.12,-230.18 795.58,-230.18"/>
<text xml:space="preserve" text-anchor="middle" x="814.46" y="-279" font-family="Helvetica,sans-Serif" font-size="10.00">sinner</text>
<polyline fill="none" stroke="black" points="833.35,-230.18 833.35,-334.82"/>
<text xml:space="preserve" text-anchor="start" x="839.11" y="-321" font-family="Helvetica,sans-Serif" font-size="10.00">sinner_id : PK</text>
<text xml:space="preserve" text-anchor="start" x="839.11" y="-309" font-family="Helvetica,sans-Serif" font-size="10.00">+ sinner_name : UNIQUE</text>
<text xml:space="preserve" text-anchor="start" x="839.11" y="-297" font-family="Helvetica,sans-Serif" font-size="10.00"> gender</text>
<text xml:space="preserve" text-anchor="start" x="839.11" y="-285" font-family="Helvetica,sans-Serif" font-size="10.00"> height</text>
<text xml:space="preserve" text-anchor="start" x="839.11" y="-273" font-family="Helvetica,sans-Serif" font-size="10.00"> birthday</text>
<text xml:space="preserve" text-anchor="start" x="839.11" y="-261" font-family="Helvetica,sans-Serif" font-size="10.00"> native_district</text>
<text xml:space="preserve" text-anchor="start" x="839.11" y="-249" font-family="Helvetica,sans-Serif" font-size="10.00"> color</text>
<text xml:space="preserve" text-anchor="start" x="839.11" y="-237" font-family="Helvetica,sans-Serif" font-size="10.00"> literary_source</text>
</g>
<!-- ego -->
<g id="node2" class="node">
<title>ego</title>
<polygon fill="none" stroke="black" points="500.16,-418.18 500.16,-498.82 615.45,-498.82 615.45,-418.18 500.16,-418.18"/>
<text xml:space="preserve" text-anchor="middle" x="513.8" y="-455" font-family="Helvetica,sans-Serif" font-size="10.00">ego</text>
<polyline fill="none" stroke="black" points="527.43,-418.18 527.43,-498.82"/>
<text xml:space="preserve" text-anchor="start" x="533.19" y="-485" font-family="Helvetica,sans-Serif" font-size="10.00">ego_id : PK</text>
<text xml:space="preserve" text-anchor="start" x="533.19" y="-473" font-family="Helvetica,sans-Serif" font-size="10.00"> ego_name</text>
<text xml:space="preserve" text-anchor="start" x="533.19" y="-461" font-family="Helvetica,sans-Serif" font-size="10.00"> sinner_id : FK</text>
<text xml:space="preserve" text-anchor="start" x="533.19" y="-449" font-family="Helvetica,sans-Serif" font-size="10.00"> class</text>
<text xml:space="preserve" text-anchor="start" x="533.19" y="-437" font-family="Helvetica,sans-Serif" font-size="10.00"> season_released</text>
<text xml:space="preserve" text-anchor="start" x="533.19" y="-425" font-family="Helvetica,sans-Serif" font-size="10.00"> acquisition</text>
</g>
<!-- ego&#45;&gt;sinner -->
<g id="edge1" class="edge">
<title>ego&#45;&gt;sinner</title>
<path fill="none" stroke="#4b5563" d="M615.86,-426.83C665.86,-399.07 739.11,-358.41 795.13,-327.31"/>
<text xml:space="preserve" text-anchor="middle" x="717.33" y="-393.39" font-family="Helvetica,sans-Serif" font-size="9.00">sinner_id (FK, N:1)</text>
</g>
<!-- identity -->
<g id="node3" class="node">
<title>identity</title>
<polygon fill="none" stroke="black" points="492.29,-68.18 492.29,-148.82 623.33,-148.82 623.33,-68.18 492.29,-68.18"/>
<text xml:space="preserve" text-anchor="middle" x="513.8" y="-105" font-family="Helvetica,sans-Serif" font-size="10.00">identity</text>
<polyline fill="none" stroke="black" points="535.31,-68.18 535.31,-148.82"/>
<text xml:space="preserve" text-anchor="start" x="541.07" y="-135" font-family="Helvetica,sans-Serif" font-size="10.00">identity_id : PK</text>
<text xml:space="preserve" text-anchor="start" x="541.07" y="-123" font-family="Helvetica,sans-Serif" font-size="10.00"> identity_name</text>
<text xml:space="preserve" text-anchor="start" x="541.07" y="-111" font-family="Helvetica,sans-Serif" font-size="10.00"> sinner_id : FK</text>
<text xml:space="preserve" text-anchor="start" x="541.07" y="-99" font-family="Helvetica,sans-Serif" font-size="10.00"> rarity</text>
<text xml:space="preserve" text-anchor="start" x="541.07" y="-87" font-family="Helvetica,sans-Serif" font-size="10.00"> season_released</text>
<text xml:space="preserve" text-anchor="start" x="541.07" y="-75" font-family="Helvetica,sans-Serif" font-size="10.00"> acquisition</text>
</g>
<!-- identity&#45;&gt;sinner -->
<g id="edge2" class="edge">
<title>identity&#45;&gt;sinner</title>
<path fill="none" stroke="#4b5563" d="M623.73,-144.13C673.37,-171.37 742.09,-209.09 795.24,-238.26"/>
<text xml:space="preserve" text-anchor="middle" x="717.33" y="-218.15" font-family="Helvetica,sans-Serif" font-size="9.00">sinner_id (FK, N:1)</text>
</g>
<!-- affinity -->
<g id="node4" class="node">
<title>affinity</title>
<polygon fill="none" stroke="black" points="491.91,-316.5 491.91,-352.5 623.7,-352.5 623.7,-316.5 491.91,-316.5"/>
<text xml:space="preserve" text-anchor="middle" x="511.92" y="-331.18" font-family="Helvetica,sans-Serif" font-size="10.00">affinity</text>
<polyline fill="none" stroke="black" points="531.93,-316.86 531.93,-352.5"/>
<text xml:space="preserve" text-anchor="middle" x="577.82" y="-331.18" font-family="Helvetica,sans-Serif" font-size="10.00">affinity_name : PK</text>
</g>
<!-- statuseffect -->
<g id="node5" class="node">
<title>statuseffect</title>
<polygon fill="none" stroke="black" points="476.54,-214.5 476.54,-250.5 639.08,-250.5 639.08,-214.5 476.54,-214.5"/>
<text xml:space="preserve" text-anchor="middle" x="507.8" y="-229.18" font-family="Helvetica,sans-Serif" font-size="10.00">statuseffect</text>
<polyline fill="none" stroke="black" points="539.06,-214.86 539.06,-250.5"/>
<text xml:space="preserve" text-anchor="middle" x="589.07" y="-229.18" font-family="Helvetica,sans-Serif" font-size="10.00">keyword_name : PK</text>
</g>
<!-- egoaffinity -->
<g id="node6" class="node">
<title>egoaffinity</title>
<polygon fill="none" stroke="black" points="31.12,-504.18 31.12,-548.82 264.16,-548.82 264.16,-504.18 31.12,-504.18"/>
<text xml:space="preserve" text-anchor="middle" x="59.01" y="-523" font-family="Helvetica,sans-Serif" font-size="10.00">egoaffinity</text>
<polyline fill="none" stroke="black" points="86.89,-504.18 86.89,-548.82"/>
<text xml:space="preserve" text-anchor="start" x="92.65" y="-535" font-family="Helvetica,sans-Serif" font-size="10.00">ego_id : FK</text>
<text xml:space="preserve" text-anchor="start" x="92.65" y="-523" font-family="Helvetica,sans-Serif" font-size="10.00">affinity_name : FK</text>
<text xml:space="preserve" text-anchor="start" x="92.65" y="-511" font-family="Helvetica,sans-Serif" font-size="10.00">(composite PK: ego_id, affinity_name)</text>
</g>
<!-- egoaffinity&#45;&gt;ego -->
<g id="edge3" class="edge">
<title>egoaffinity&#45;&gt;ego</title>
<path fill="none" stroke="#4b5563" d="M264.5,-515.23C344.5,-507.45 436.54,-498.5 436.54,-498.5 436.54,-498.5 468.76,-487.78 499.84,-477.45"/>
<text xml:space="preserve" text-anchor="middle" x="385.91" y="-509.51" font-family="Helvetica,sans-Serif" font-size="9.00">ego_id (FK, N:1)</text>
</g>
<!-- egoaffinity&#45;&gt;affinity -->
<g id="edge4" class="edge">
<title>egoaffinity&#45;&gt;affinity</title>
<path fill="none" stroke="#4b5563" d="M208.65,-503.78C293.02,-471.84 436.54,-417.5 436.54,-417.5 436.54,-417.5 476.54,-385.5 476.54,-385.5 476.54,-385.5 504.84,-367.52 527.83,-352.91"/>
<text xml:space="preserve" text-anchor="middle" x="385.91" y="-454.71" font-family="Helvetica,sans-Serif" font-size="9.00">affinity_name (FK, N:1)</text>
</g>
<!-- egostatuseffect -->
<g id="node7" class="node">
<title>egostatuseffect</title>
<polygon fill="none" stroke="black" points="15.75,-327.18 15.75,-371.82 279.54,-371.82 279.54,-327.18 15.75,-327.18"/>
<text xml:space="preserve" text-anchor="middle" x="54.88" y="-346" font-family="Helvetica,sans-Serif" font-size="10.00">egostatuseffect</text>
<polyline fill="none" stroke="black" points="94.02,-327.18 94.02,-371.82"/>
<text xml:space="preserve" text-anchor="start" x="99.78" y="-358" font-family="Helvetica,sans-Serif" font-size="10.00">ego_id : FK</text>
<text xml:space="preserve" text-anchor="start" x="99.78" y="-346" font-family="Helvetica,sans-Serif" font-size="10.00">keyword_name : FK</text>
<text xml:space="preserve" text-anchor="start" x="99.78" y="-334" font-family="Helvetica,sans-Serif" font-size="10.00">(composite PK: ego_id, keyword_name)</text>
</g>
<!-- egostatuseffect&#45;&gt;ego -->
<g id="edge5" class="edge">
<title>egostatuseffect&#45;&gt;ego</title>
<path fill="none" stroke="#4b5563" d="M266.99,-372.31C346.39,-387.62 436.54,-405 436.54,-405 436.54,-405 468.76,-419.33 499.84,-433.16"/>
<text xml:space="preserve" text-anchor="middle" x="385.91" y="-406.95" font-family="Helvetica,sans-Serif" font-size="9.00">ego_id (FK, N:1)</text>
</g>
<!-- egostatuseffect&#45;&gt;statuseffect -->
<g id="edge6" class="edge">
<title>egostatuseffect&#45;&gt;statuseffect</title>
<path fill="none" stroke="#4b5563" d="M227.83,-326.8C304.91,-304.71 420.62,-271.54 492.28,-251"/>
<text xml:space="preserve" text-anchor="middle" x="385.91" y="-296.46" font-family="Helvetica,sans-Serif" font-size="9.00">keyword_name (FK, N:1)</text>
</g>
<!-- identityaffinity -->
<g id="node8" class="node">
<title>identityaffinity</title>
<polygon fill="none" stroke="black" points="15.37,-167.18 15.37,-211.82 279.91,-211.82 279.91,-167.18 15.37,-167.18"/>
<text xml:space="preserve" text-anchor="middle" x="51.13" y="-186" font-family="Helvetica,sans-Serif" font-size="10.00">identityaffinity</text>
<polyline fill="none" stroke="black" points="86.89,-167.18 86.89,-211.82"/>
<text xml:space="preserve" text-anchor="start" x="92.65" y="-198" font-family="Helvetica,sans-Serif" font-size="10.00">identity_id : FK</text>
<text xml:space="preserve" text-anchor="start" x="92.65" y="-186" font-family="Helvetica,sans-Serif" font-size="10.00">affinity_name : FK</text>
<text xml:space="preserve" text-anchor="start" x="92.65" y="-174" font-family="Helvetica,sans-Serif" font-size="10.00">(composite PK: identity_id, affinity_name)</text>
</g>
<!-- identityaffinity&#45;&gt;identity -->
<g id="edge7" class="edge">
<title>identityaffinity&#45;&gt;identity</title>
<path fill="none" stroke="#4b5563" d="M263.43,-166.72C337.35,-152.05 430.74,-133.52 492.04,-121.35"/>
<text xml:space="preserve" text-anchor="middle" x="385.91" y="-153.38" font-family="Helvetica,sans-Serif" font-size="9.00">identity_id (FK, N:1)</text>
</g>
<!-- identityaffinity&#45;&gt;affinity -->
<g id="edge8" class="edge">
<title>identityaffinity&#45;&gt;affinity</title>
<path fill="none" stroke="#4b5563" d="M271.16,-212.27C349.51,-226.83 436.54,-243 436.54,-243 436.54,-243 476.54,-283.5 476.54,-283.5 476.54,-283.5 504.84,-301.48 527.83,-316.09"/>
<text xml:space="preserve" text-anchor="middle" x="385.91" y="-244.95" font-family="Helvetica,sans-Serif" font-size="9.00">affinity_name (FK, N:1)</text>
</g>
<!-- identitystatuseffect -->
<g id="node9" class="node">
<title>identitystatuseffect</title>
<polygon fill="none" stroke="black" points="0,-31.18 0,-75.82 295.29,-75.82 295.29,-31.18 0,-31.18"/>
<text xml:space="preserve" text-anchor="middle" x="47.01" y="-50" font-family="Helvetica,sans-Serif" font-size="10.00">identitystatuseffect</text>
<polyline fill="none" stroke="black" points="94.02,-31.18 94.02,-75.82"/>
<text xml:space="preserve" text-anchor="start" x="99.78" y="-62" font-family="Helvetica,sans-Serif" font-size="10.00">identity_id : FK</text>
<text xml:space="preserve" text-anchor="start" x="99.78" y="-50" font-family="Helvetica,sans-Serif" font-size="10.00">keyword_name : FK</text>
<text xml:space="preserve" text-anchor="start" x="99.78" y="-38" font-family="Helvetica,sans-Serif" font-size="10.00">(composite PK: identity_id, keyword_name)</text>
</g>
<!-- identitystatuseffect&#45;&gt;identity -->
<g id="edge9" class="edge">
<title>identitystatuseffect&#45;&gt;identity</title>
<path fill="none" stroke="#4b5563" d="M228.07,-30.73C278.87,-16.17 335.29,0 335.29,0 335.29,0 436.54,0 436.54,0 436.54,0 477.56,-37 511.68,-67.79"/>
<text xml:space="preserve" text-anchor="middle" x="385.91" y="-1.95" font-family="Helvetica,sans-Serif" font-size="9.00">identity_id (FK, N:1)</text>
</g>
<!-- identitystatuseffect&#45;&gt;statuseffect -->
<g id="edge10" class="edge">
<title>identitystatuseffect&#45;&gt;statuseffect</title>
<path fill="none" stroke="#4b5563" d="M273.66,-76.3C351.36,-90.47 436.54,-106 436.54,-106 436.54,-106 476.54,-181.5 476.54,-181.5 476.54,-181.5 504.84,-199.48 527.83,-214.09"/>
<text xml:space="preserve" text-anchor="middle" x="385.91" y="-107.95" font-family="Helvetica,sans-Serif" font-size="9.00">keyword_name (FK, N:1)</text>
</g>
</g>
</svg>
