<?xml version="1.0" encoding="UTF-8" standalone="no"?>
<!DOCTYPE svg PUBLIC "-//W3C//DTD SVG 1.1//EN"
 "http://www.w3.org/Graphics/SVG/1.1/DTD/svg11.dtd">
<!-- Generated by graphviz version 14.1.5 (20260411.2331)
 -->
<!-- Title: LimbusDB_ER Pages: 1 -->
<svg width="1126pt" height="343pt"
 viewBox="0.00 0.00 1126.00 343.00" xmlns="http://www.w3.org/2000/svg" xmlns:xlink="http://www.w3.org/1999/xlink">
<g id="graph0" class="graph" transform="scale(1 1) rotate(0) translate(4 338.5)">
<title>LimbusDB_ER</title>
<polygon fill="white" stroke="none" points="-4,4 -4,-338.5 1121.5,-338.5 1121.5,4 -4,4"/>
<!-- sinner -->
<g id="node1" class="node">
<title>sinner</title>
<polygon fill="none" stroke="black" points="893.5,-99.75 893.5,-233.75 1117.5,-233.75 1117.5,-99.75 893.5,-99.75"/>
<text xml:space="preserve" text-anchor="middle" x="919.88" y="-161.32" font-family="Helvetica,sans-Serif" font-size="14.00">sinner</text>
<polyline fill="none" stroke="black" points="946.25,-99.75 946.25,-233.75"/>
<text xml:space="preserve" text-anchor="start" x="954.25" y="-216.45" font-family="Helvetica,sans-Serif" font-size="14.00">sinner_id : PK</text>
<text xml:space="preserve" text-anchor="start" x="954.25" y="-200.7" font-family="Helvetica,sans-Serif" font-size="14.00">+ sinner_name : UNIQUE</text>
<text xml:space="preserve" text-anchor="start" x="954.25" y="-184.95" font-family="Helvetica,sans-Serif" font-size="14.00"> gender</text>
<text xml:space="preserve" text-anchor="start" x="954.25" y="-169.2" font-family="Helvetica,sans-Serif" font-size="14.00"> height</text>
<text xml:space="preserve" text-anchor="start" x="954.25" y="-153.45" font-family="Helvetica,sans-Serif" font-size="14.00"> birthday</text>
<text xml:space="preserve" text-anchor="start" x="954.25" y="-137.7" font-family="Helvetica,sans-Serif" font-size="14.00"> native_district</text>
<text xml:space="preserve" text-anchor="start" x="954.25" y="-121.95" font-family="Helvetica,sans-Serif" font-size="14.00"> color</text>
<text xml:space="preserve" text-anchor="start" x="954.25" y="-106.2" font-family="Helvetica,sans-Serif" font-size="14.00"> literary_source</text>
</g>
<!-- ego -->
<g id="node2" class="node">
<title>ego</title>
<polygon fill="none" stroke="black" points="585.5,-231.5 585.5,-334 746.5,-334 746.5,-231.5 585.5,-231.5"/>
<text xml:space="preserve" text-anchor="middle" x="604.75" y="-277.32" font-family="Helvetica,sans-Serif" font-size="14.00">ego</text>
<polyline fill="none" stroke="black" points="624,-231.5 624,-334"/>
<text xml:space="preserve" text-anchor="start" x="632" y="-316.7" font-family="Helvetica,sans-Serif" font-size="14.00">ego_id : PK</text>
<text xml:space="preserve" text-anchor="start" x="632" y="-300.95" font-family="Helvetica,sans-Serif" font-size="14.00"> ego_name</text>
<text xml:space="preserve" text-anchor="start" x="632" y="-285.2" font-family="Helvetica,sans-Serif" font-size="14.00"> sinner_id : FK</text>
<text xml:space="preserve" text-anchor="start" x="632" y="-269.45" font-family="Helvetica,sans-Serif" font-size="14.00"> class</text>
<text xml:space="preserve" text-anchor="start" x="632" y="-253.7" font-family="Helvetica,sans-Serif" font-size="14.00"> season_released</text>
<text xml:space="preserve" text-anchor="start" x="632" y="-237.95" font-family="Helvetica,sans-Serif" font-size="14.00"> acquisition</text>
</g>
<!-- ego&#45;&gt;sinner -->
<g id="edge1" class="edge">
<title>ego&#45;&gt;sinner</title>
<path fill="none" stroke="black" d="M746.98,-255.26C790.65,-240.25 845.4,-221.43 893.17,-205.01"/>
<text xml:space="preserve" text-anchor="middle" x="835.38" y="-241.75" font-family="Times New Roman,serif" font-size="14.00">sinner_id (FK)</text>
<text xml:space="preserve" text-anchor="middle" x="868.63" y="-196.93" font-family="Times New Roman,serif" font-size="9.00">1</text>
<text xml:space="preserve" text-anchor="middle" x="771.52" y="-256.74" font-family="Times New Roman,serif" font-size="9.00">N</text>
</g>
<!-- identity -->
<g id="node3" class="node">
<title>identity</title>
<polygon fill="none" stroke="black" points="575.38,-0.5 575.38,-103 756.62,-103 756.62,-0.5 575.38,-0.5"/>
<text xml:space="preserve" text-anchor="middle" x="604.75" y="-46.33" font-family="Helvetica,sans-Serif" font-size="14.00">identity</text>
<polyline fill="none" stroke="black" points="634.12,-0.5 634.12,-103"/>
<text xml:space="preserve" text-anchor="start" x="642.12" y="-85.7" font-family="Helvetica,sans-Serif" font-size="14.00">identity_id : PK</text>
<text xml:space="preserve" text-anchor="start" x="642.12" y="-69.95" font-family="Helvetica,sans-Serif" font-size="14.00"> identity_name</text>
<text xml:space="preserve" text-anchor="start" x="642.12" y="-54.2" font-family="Helvetica,sans-Serif" font-size="14.00"> sinner_id : FK</text>
<text xml:space="preserve" text-anchor="start" x="642.12" y="-38.45" font-family="Helvetica,sans-Serif" font-size="14.00"> rarity</text>
<text xml:space="preserve" text-anchor="start" x="642.12" y="-22.7" font-family="Helvetica,sans-Serif" font-size="14.00"> season_released</text>
<text xml:space="preserve" text-anchor="start" x="642.12" y="-6.95" font-family="Helvetica,sans-Serif" font-size="14.00"> acquisition</text>
</g>
<!-- identity&#45;&gt;sinner -->
<g id="edge2" class="edge">
<title>identity&#45;&gt;sinner</title>
<path fill="none" stroke="black" d="M757,-82.42C798.79,-96.66 848.88,-113.72 893.04,-128.77"/>
<text xml:space="preserve" text-anchor="middle" x="835.38" y="-122.75" font-family="Times New Roman,serif" font-size="14.00">sinner_id (FK)</text>
<text xml:space="preserve" text-anchor="middle" x="876.58" y="-106.66" font-family="Times New Roman,serif" font-size="9.00">1</text>
<text xml:space="preserve" text-anchor="middle" x="773.46" y="-97.93" font-family="Times New Roman,serif" font-size="9.00">N</text>
</g>
<!-- affinity -->
<g id="node4" class="node">
<title>affinity</title>
<polygon fill="none" stroke="black" points="575.38,-176.75 575.38,-212.75 756.62,-212.75 756.62,-176.75 575.38,-176.75"/>
<text xml:space="preserve" text-anchor="middle" x="602.88" y="-189.45" font-family="Helvetica,sans-Serif" font-size="14.00">affinity</text>
<polyline fill="none" stroke="black" points="630.38,-177 630.38,-212.75"/>
<text xml:space="preserve" text-anchor="middle" x="693.5" y="-189.45" font-family="Helvetica,sans-Serif" font-size="14.00">affinity_name : PK</text>
</g>
<!-- statuseffect -->
<g id="node5" class="node">
<title>statuseffect</title>
<polygon fill="none" stroke="black" points="554.75,-121.75 554.75,-157.75 777.25,-157.75 777.25,-121.75 554.75,-121.75"/>
<text xml:space="preserve" text-anchor="middle" x="597.25" y="-134.45" font-family="Helvetica,sans-Serif" font-size="14.00">statuseffect</text>
<polyline fill="none" stroke="black" points="639.75,-122 639.75,-157.75"/>
<text xml:space="preserve" text-anchor="middle" x="708.5" y="-134.45" font-family="Helvetica,sans-Serif" font-size="14.00">keyword_name : PK</text>
</g>
<!-- egoaffinity -->
<g id="node6" class="node">
<title>egoaffinity</title>
<polygon fill="none" stroke="black" points="40.88,-260.12 40.88,-315.38 363.88,-315.38 363.88,-260.12 40.88,-260.12"/>
<text xml:space="preserve" text-anchor="middle" x="79.62" y="-282.32" font-family="Helvetica,sans-Serif" font-size="14.00">egoaffinity</text>
<polyline fill="none" stroke="black" points="118.38,-260.12 118.38,-315.38"/>
<text xml:space="preserve" text-anchor="start" x="126.38" y="-298.07" font-family="Helvetica,sans-Serif" font-size="14.00">ego_id : FK</text>
<text xml:space="preserve" text-anchor="start" x="126.38" y="-282.32" font-family="Helvetica,sans-Serif" font-size="14.00">affinity_name : FK</text>
<text xml:space="preserve" text-anchor="start" x="126.38" y="-266.57" font-family="Helvetica,sans-Serif" font-size="14.00">(composite PK: ego_id, affinity_name)</text>
</g>
<!-- egoaffinity&#45;&gt;ego -->
<g id="edge3" class="edge">
<title>egoaffinity&#45;&gt;ego</title>
<path fill="none" stroke="black" d="M364.05,-287.35C418.84,-287.06 480.47,-286.58 536.75,-285.75 552.45,-285.52 569.23,-285.19 585.3,-284.83"/>
<text xml:space="preserve" text-anchor="middle" x="479.75" y="-290.15" font-family="Times New Roman,serif" font-size="14.00">ego_id (FK)</text>
<text xml:space="preserve" text-anchor="middle" x="563.38" y="-269.51" font-family="Times New Roman,serif" font-size="9.00">1</text>
<text xml:space="preserve" text-anchor="middle" x="385.76" y="-296.43" font-family="Times New Roman,serif" font-size="9.00">N</text>
</g>
<!-- egoaffinity&#45;&gt;affinity -->
<g id="edge4" class="edge">
<title>egoaffinity&#45;&gt;affinity</title>
<path fill="none" stroke="black" d="M364.01,-270.27C445.34,-260.94 528.68,-250.44 536.75,-245.75 548.28,-239.05 543.62,-229.1 554.75,-221.75 561,-217.62 567.82,-214.13 574.91,-211.16"/>
<text xml:space="preserve" text-anchor="middle" x="479.75" y="-265.51" font-family="Times New Roman,serif" font-size="14.00">affinity_name (FK)</text>
<text xml:space="preserve" text-anchor="middle" x="550.09" y="-204.87" font-family="Times New Roman,serif" font-size="9.00">1</text>
<text xml:space="preserve" text-anchor="middle" x="386.96" y="-276.89" font-family="Times New Roman,serif" font-size="9.00">N</text>
</g>
<!-- egostatuseffect -->
<g id="node7" class="node">
<title>egostatuseffect</title>
<polygon fill="none" stroke="black" points="20.25,-163.12 20.25,-218.38 384.5,-218.38 384.5,-163.12 20.25,-163.12"/>
<text xml:space="preserve" text-anchor="middle" x="74" y="-185.32" font-family="Helvetica,sans-Serif" font-size="14.00">egostatuseffect</text>
<polyline fill="none" stroke="black" points="127.75,-163.12 127.75,-218.38"/>
<text xml:space="preserve" text-anchor="start" x="135.75" y="-201.07" font-family="Helvetica,sans-Serif" font-size="14.00">ego_id : FK</text>
<text xml:space="preserve" text-anchor="start" x="135.75" y="-185.32" font-family="Helvetica,sans-Serif" font-size="14.00">keyword_name : FK</text>
<text xml:space="preserve" text-anchor="start" x="135.75" y="-169.57" font-family="Helvetica,sans-Serif" font-size="14.00">(composite PK: ego_id, keyword_name)</text>
</g>
<!-- egostatuseffect&#45;&gt;ego -->
<g id="edge5" class="edge">
<title>egostatuseffect&#45;&gt;ego</title>
<path fill="none" stroke="black" d="M384.58,-202.36C434.42,-208.06 488.12,-216.57 536.75,-229.25 552.74,-233.42 569.36,-239.19 585.12,-245.4"/>
<text xml:space="preserve" text-anchor="middle" x="479.75" y="-232.45" font-family="Times New Roman,serif" font-size="14.00">ego_id (FK)</text>
<text xml:space="preserve" text-anchor="middle" x="569.48" y="-222.6" font-family="Times New Roman,serif" font-size="9.00">1</text>
<text xml:space="preserve" text-anchor="middle" x="404.6" y="-214.04" font-family="Times New Roman,serif" font-size="9.00">N</text>
</g>
<!-- egostatuseffect&#45;&gt;statuseffect -->
<g id="edge6" class="edge">
<title>egostatuseffect&#45;&gt;statuseffect</title>
<path fill="none" stroke="black" d="M384.62,-181.3C434.09,-177.59 487.59,-172.55 536.75,-165.75 551.38,-163.73 566.85,-161.05 581.78,-158.19"/>
<text xml:space="preserve" text-anchor="middle" x="479.75" y="-181.04" font-family="Times New Roman,serif" font-size="14.00">keyword_name (FK)</text>
<text xml:space="preserve" text-anchor="middle" x="558.18" y="-146.64" font-family="Times New Roman,serif" font-size="9.00">1</text>
<text xml:space="preserve" text-anchor="middle" x="407.16" y="-188.8" font-family="Times New Roman,serif" font-size="9.00">N</text>
</g>
<!-- identityaffinity -->
<g id="node8" class="node">
<title>identityaffinity</title>
<polygon fill="none" stroke="black" points="20.62,-84.12 20.62,-139.38 384.12,-139.38 384.12,-84.12 20.62,-84.12"/>
<text xml:space="preserve" text-anchor="middle" x="69.5" y="-106.33" font-family="Helvetica,sans-Serif" font-size="14.00">identityaffinity</text>
<polyline fill="none" stroke="black" points="118.38,-84.12 118.38,-139.38"/>
<text xml:space="preserve" text-anchor="start" x="126.38" y="-122.08" font-family="Helvetica,sans-Serif" font-size="14.00">identity_id : FK</text>
<text xml:space="preserve" text-anchor="start" x="126.38" y="-106.33" font-family="Helvetica,sans-Serif" font-size="14.00">affinity_name : FK</text>
<text xml:space="preserve" text-anchor="start" x="126.38" y="-90.58" font-family="Helvetica,sans-Serif" font-size="14.00">(composite PK: identity_id, affinity_name)</text>
</g>
<!-- identityaffinity&#45;&gt;identity -->
<g id="edge7" class="edge">
<title>identityaffinity&#45;&gt;identity</title>
<path fill="none" stroke="black" d="M384.48,-103.62C434.07,-99.77 487.67,-94.1 536.75,-85.75 549.24,-83.63 562.28,-80.84 575.06,-77.79"/>
<text xml:space="preserve" text-anchor="middle" x="479.75" y="-103.09" font-family="Times New Roman,serif" font-size="14.00">identity_id (FK)</text>
<text xml:space="preserve" text-anchor="middle" x="551.12" y="-67.31" font-family="Times New Roman,serif" font-size="9.00">1</text>
<text xml:space="preserve" text-anchor="middle" x="407.07" y="-111.04" font-family="Times New Roman,serif" font-size="9.00">N</text>
</g>
<!-- identityaffinity&#45;&gt;affinity -->
<g id="edge8" class="edge">
<title>identityaffinity&#45;&gt;affinity</title>
<path fill="none" stroke="black" d="M384.27,-117.57C447.56,-122.21 509.6,-130.49 536.75,-145.25 548,-151.37 543.96,-160.86 554.75,-167.75 561.06,-171.78 567.93,-175.21 575.05,-178.12"/>
<text xml:space="preserve" text-anchor="middle" x="479.75" y="-148.45" font-family="Times New Roman,serif" font-size="14.00">affinity_name (FK)</text>
<text xml:space="preserve" text-anchor="middle" x="559.9" y="-154.93" font-family="Times New Roman,serif" font-size="9.00">1</text>
<text xml:space="preserve" text-anchor="middle" x="404.86" y="-128.45" font-family="Times New Roman,serif" font-size="9.00">N</text>
</g>
<!-- identitystatuseffect -->
<g id="node9" class="node">
<title>identitystatuseffect</title>
<polygon fill="none" stroke="black" points="0,-7.12 0,-62.38 404.75,-62.38 404.75,-7.12 0,-7.12"/>
<text xml:space="preserve" text-anchor="middle" x="63.88" y="-29.32" font-family="Helvetica,sans-Serif" font-size="14.00">identitystatuseffect</text>
<polyline fill="none" stroke="black" points="127.75,-7.12 127.75,-62.38"/>
<text xml:space="preserve" text-anchor="start" x="135.75" y="-45.08" font-family="Helvetica,sans-Serif" font-size="14.00">identity_id : FK</text>
<text xml:space="preserve" text-anchor="start" x="135.75" y="-29.32" font-family="Helvetica,sans-Serif" font-size="14.00">keyword_name : FK</text>
<text xml:space="preserve" text-anchor="start" x="135.75" y="-13.57" font-family="Helvetica,sans-Serif" font-size="14.00">(composite PK: identity_id, keyword_name)</text>
</g>
<!-- identitystatuseffect&#45;&gt;identity -->
<g id="edge9" class="edge">
<title>identitystatuseffect&#45;&gt;identity</title>
<path fill="none" stroke="black" d="M405.02,-24.73C448.53,-24.43 494.22,-25.55 536.75,-29.25 549.25,-30.34 562.36,-32.01 575.22,-33.97"/>
<text xml:space="preserve" text-anchor="middle" x="479.75" y="-32.45" font-family="Times New Roman,serif" font-size="14.00">identity_id (FK)</text>
<text xml:space="preserve" text-anchor="middle" x="555.65" y="-15.1" font-family="Times New Roman,serif" font-size="9.00">1</text>
<text xml:space="preserve" text-anchor="middle" x="426.72" y="-33.85" font-family="Times New Roman,serif" font-size="9.00">N</text>
</g>
<!-- identitystatuseffect&#45;&gt;statuseffect -->
<g id="edge10" class="edge">
<title>identitystatuseffect&#45;&gt;statuseffect</title>
<path fill="none" stroke="black" d="M405.05,-44.67C468.27,-49.46 524.81,-56.17 536.75,-65.25 554.72,-78.91 537.84,-97.79 554.75,-112.75 558.37,-115.95 562.3,-118.78 566.46,-121.29"/>
<text xml:space="preserve" text-anchor="middle" x="479.75" y="-68.45" font-family="Times New Roman,serif" font-size="14.00">keyword_name (FK)</text>
<text xml:space="preserve" text-anchor="middle" x="554.56" y="-96" font-family="Times New Roman,serif" font-size="9.00">1</text>
<text xml:space="preserve" text-anchor="middle" x="425.64" y="-55.55" font-family="Times New Roman,serif" font-size="9.00">N</text>
</g>
</g>
</svg>
